<svg xmlns="http://www.w3.org/2000/svg" width="269" height="269" viewBox="0 0 269 269">
<g>
<path d="M 0.00 0.00 L 269.00 0.00 L 269.00 269.00 L 0.00 269.00 ZM 138.67 165.21 L 138.23 173.91 L 145.36 170.33 C156.51,164.74 166.60,158.37 177.89,149.79 C189.34,141.10 195.27,137.67 197.83,138.29 C199.26,138.63 199.22,138.80 197.50,139.49 C194.52,140.69 189.00,144.96 189.00,146.07 C189.00,146.60 190.70,146.17 192.77,145.12 C194.85,144.06 201.35,141.79 207.23,140.08 C224.95,134.92 233.95,130.05 238.04,123.43 C240.92,118.77 240.51,118.63 235.14,122.49 C230.33,125.95 217.22,131.55 216.24,130.57 C215.96,130.29 219.31,126.28 223.68,121.65 C236.22,108.41 242.03,94.50 241.97,77.86 C241.94,69.16 240.76,68.75 239.68,77.06 C238.88,83.23 235.88,89.98 229.83,99.24 C224.67,107.12 223.00,108.06 223.00,103.09 C223.00,99.58 221.10,94.00 219.90,94.00 C219.41,94.00 219.00,94.80 219.00,95.78 C219.00,99.71 201.73,122.00 198.69,122.00 C197.85,122.00 197.60,119.94 197.83,115.09 L 198.16 108.17 L 208.41 106.76 L 204.96 104.99 C196.97,100.92 183.78,100.15 172.65,103.11 C165.99,104.88 167.49,103.24 174.51,101.07 C178.19,99.93 183.19,99.00 185.61,99.00 C188.02,99.00 190.00,98.57 190.00,98.04 C190.00,96.28 181.60,94.77 174.50,95.25 L 167.50 95.72 L 172.50 93.37 C175.25,92.08 178.18,91.01 179.00,91.00 C180.33,90.97 180.33,90.86 179.00,90.00 C176.83,88.60 169.13,88.86 164.54,90.50 C162.36,91.27 160.42,91.75 160.22,91.55 C160.02,91.35 161.92,89.78 164.43,88.05 C166.94,86.32 169.00,84.75 169.00,84.56 C169.00,83.69 161.68,85.99 158.52,87.86 C154.33,90.33 154.14,89.82 157.55,85.34 C159.25,83.12 159.65,82.00 158.75,82.00 C156.31,82.00 148.32,87.71 145.39,91.55 L 142.52 95.31 L 141.79 90.91 C140.97,85.94 137.11,77.00 135.79,77.00 C134.48,77.00 130.99,85.79 130.30,90.82 L 129.69 95.26 L 126.25 91.12 C120.90,84.67 109.06,78.44 113.93,84.63 C116.96,88.49 116.48,89.21 112.25,87.09 C110.19,86.06 107.15,84.94 105.50,84.62 L 102.50 84.02 L 105.39 86.26 C106.98,87.49 109.23,89.33 110.39,90.33 C112.40,92.08 112.40,92.13 110.50,91.43 C106.24,89.85 97.26,88.72 94.49,89.41 C91.67,90.12 91.75,90.20 97.39,92.50 C100.58,93.79 103.38,95.05 103.63,95.30 C103.87,95.54 101.02,95.52 97.29,95.26 C90.38,94.77 82.00,96.29 82.00,98.04 C82.00,98.57 83.91,99.01 86.25,99.01 C91.01,99.03 99.74,101.12 102.61,102.94 C104.31,104.02 104.25,104.08 102.00,103.55 C100.62,103.23 96.01,102.45 91.74,101.83 C83.03,100.55 73.09,101.78 67.23,104.85 L 63.96 106.57 L 74.43 108.23 C94.16,111.36 108.84,118.67 128.07,134.94 C135.23,141.00 136.59,141.78 137.94,140.64 C154.85,126.26 165.40,119.04 176.63,114.14 C183.35,111.21 195.98,107.64 196.78,108.45 C196.98,108.65 195.99,111.22 194.59,114.16 C191.88,119.79 182.83,130.91 177.08,135.64 L 173.67 138.46 L 174.53 135.48 C175.77,131.21 175.56,126.42 174.01,123.51 C172.44,120.59 171.00,120.23 171.00,122.77 C171.00,126.30 167.27,131.25 156.25,142.34 C146.19,152.47 145.00,153.38 145.00,150.98 C145.00,149.51 145.49,146.89 146.09,145.17 C147.88,140.04 146.53,139.20 143.70,143.68 C140.44,148.85 139.23,154.00 138.67,165.21 ZM 53.00 248.81 C53.00,249.11 54.67,247.37 56.71,244.93 C62.90,237.52 76.84,223.51 77.42,224.09 C77.73,224.39 77.07,227.21 75.97,230.35 C74.87,233.49 73.71,238.85 73.40,242.28 L 72.84 248.50 L 75.17 244.73 C84.08,230.29 97.15,211.24 106.71,198.75 C109.14,195.59 110.91,193.00 110.65,193.00 C110.39,193.00 107.81,194.23 104.91,195.74 C100.44,198.05 98.40,198.47 91.57,198.48 C85.57,198.48 82.60,198.00 80.00,196.61 C64.22,188.13 58.49,171.60 66.03,156.28 C69.06,150.14 69.12,149.79 67.44,147.93 C65.63,145.94 63.41,145.23 64.50,147.00 C64.84,147.55 64.20,148.00 63.07,148.00 C61.83,148.00 60.13,146.63 58.76,144.51 C56.03,140.30 55.24,140.14 54.80,143.75 C54.50,146.27 54.34,146.13 52.87,142.00 L 51.26 137.50 L 50.51 141.29 C50.10,143.37 50.04,146.46 50.38,148.15 C50.92,150.87 50.76,151.17 49.00,150.71 C46.59,150.08 46.54,150.37 48.58,153.48 C50.13,155.85 50.10,155.89 46.41,156.58 L 42.67 157.29 L 46.58 159.39 L 50.50 161.50 L 45.75 161.80 C43.14,161.97 41.00,162.42 41.01,162.80 C41.01,163.19 42.47,164.38 44.26,165.45 C47.48,167.38 47.48,167.40 45.00,167.72 C43.62,167.89 40.96,168.29 39.08,168.60 L 35.66 169.15 L 38.58 171.49 C40.19,172.77 41.28,173.99 41.00,174.19 C40.72,174.39 38.70,175.38 36.50,176.39 L 32.50 178.22 L 36.92 179.86 C41.88,181.70 43.46,183.97 39.83,184.06 C38.55,184.09 35.50,184.92 33.06,185.91 L 28.61 187.71 L 33.43 188.44 C41.26,189.61 41.42,190.04 35.14,193.01 C31.89,194.55 29.00,196.19 28.71,196.66 C28.42,197.13 31.05,197.60 34.56,197.69 C38.08,197.79 41.74,198.31 42.70,198.85 C44.25,199.72 44.11,199.98 41.48,201.11 C38.31,202.47 35.00,204.92 35.00,205.90 C35.00,206.23 37.19,206.35 39.86,206.16 C42.54,205.98 45.80,205.99 47.11,206.19 C49.24,206.52 49.01,206.82 45.00,208.93 C39.25,211.94 34.17,215.81 32.94,218.10 C32.11,219.67 32.69,219.59 37.52,217.45 C40.57,216.10 43.19,215.00 43.35,215.00 C43.51,215.00 42.33,217.73 40.73,221.07 C39.13,224.42 38.07,227.40 38.38,227.71 C38.69,228.03 41.32,226.49 44.23,224.29 C47.13,222.10 51.03,219.52 52.89,218.56 L 56.27 216.81 L 54.26 219.65 C51.63,223.39 47.15,232.32 45.35,237.43 L 43.92 241.50 L 49.71 235.89 C54.61,231.14 60.27,226.80 65.73,223.62 C66.41,223.23 64.79,226.42 62.13,230.70 C57.87,237.58 53.00,247.24 53.00,248.81 ZM 212.76 242.25 C215.86,245.96 218.53,249.00 218.69,249.00 C219.99,249.00 212.97,235.13 207.37,226.64 C205.97,224.51 205.43,223.13 206.16,223.56 C211.80,226.86 217.36,231.11 222.29,235.89 L 228.08 241.50 L 226.65 237.45 C225.03,232.83 219.84,222.67 217.29,219.11 L 215.58 216.73 L 219.04 218.50 C220.94,219.48 225.09,222.24 228.25,224.63 C234.77,229.56 235.29,228.84 231.15,220.64 C229.59,217.54 228.45,215.00 228.63,215.00 C228.80,215.00 231.43,216.10 234.48,217.45 C239.74,219.78 239.96,219.80 238.94,217.88 C238.34,216.77 235.24,214.21 232.05,212.18 C231.33,211.72 230.65,211.30 230.03,210.90 C225.69,208.16 223.76,206.94 223.93,206.44 C224.07,206.04 225.55,206.10 228.20,206.20 C228.68,206.22 229.20,206.24 229.75,206.26 C233.74,206.39 237.00,206.19 237.00,205.82 C237.00,204.95 232.12,201.55 229.50,200.60 C227.63,199.91 227.61,199.80 229.27,198.87 C230.24,198.33 234.00,197.81 237.62,197.73 L 244.21 197.58 L 241.49 195.41 C240.00,194.22 237.02,192.67 234.88,191.96 C232.74,191.25 231.20,190.46 231.46,190.21 C231.72,189.95 234.53,189.21 237.72,188.56 L 243.50 187.39 L 238.57 185.69 C235.86,184.76 232.79,184.00 231.74,184.00 C228.49,184.00 230.42,181.59 235.08,179.83 L 239.50 178.15 L 235.26 176.33 C232.93,175.32 231.02,174.16 231.01,173.74 C231.00,173.31 232.41,172.11 234.13,171.07 L 237.26 169.16 L 232.38 168.52 C227.57,167.88 225.62,167.63 225.55,167.11 C225.49,166.76 226.30,166.28 227.65,165.48 L 227.74 165.43 C229.53,164.37 230.99,163.16 230.99,162.75 C231.00,162.34 228.95,162.00 226.44,162.00 C221.33,162.00 221.29,160.76 226.33,158.55 C228.96,157.40 229.13,157.15 227.33,157.08 C226.14,157.04 224.46,156.73 223.60,156.40 C222.20,155.86 222.19,155.56 223.51,153.68 C225.51,150.82 225.39,150.09 223.00,150.71 C221.24,151.17 221.08,150.87 221.62,148.15 C221.96,146.46 221.90,143.37 221.49,141.29 L 220.74 137.50 L 219.15 142.00 L 217.56 146.50 L 216.50 139.50 L 214.23 143.15 C211.85,146.98 208.80,148.91 208.16,146.98 C207.93,146.29 206.90,146.68 205.52,147.99 L 203.25 150.12 L 206.31 155.81 C208.96,160.75 209.37,162.56 209.43,169.50 C209.51,178.70 207.39,184.24 201.41,190.39 C195.32,196.66 190.71,198.49 180.95,198.49 C173.58,198.50 171.68,198.12 167.11,195.75 C164.20,194.24 161.60,193.00 161.33,193.00 C161.07,193.00 162.48,195.14 164.47,197.75 C175.83,212.66 187.32,229.15 194.18,240.42 C198.88,248.14 199.00,248.24 199.00,244.78 C199.00,242.82 197.91,237.47 196.58,232.87 C195.25,228.27 194.36,224.31 194.61,224.06 C195.25,223.42 206.13,234.33 212.76,242.25 ZM 74.81 96.00 C76.76,100.48 75.89,79.75 73.36,61.58 L 72.68 56.66 L 79.22 63.33 C88.46,72.75 94.64,75.51 106.50,75.48 C113.87,75.47 116.26,75.06 119.72,73.23 C125.55,70.14 130.57,65.54 133.17,60.91 C134.38,58.76 135.62,57.01 135.93,57.02 C136.25,57.03 137.97,59.28 139.76,62.02 C146.03,71.61 156.71,76.70 168.57,75.75 C177.67,75.02 185.01,71.26 192.77,63.34 L 199.30 56.68 L 198.58 62.09 C196.10,80.75 195.10,98.23 196.61,96.72 C196.95,96.38 198.25,89.90 199.50,82.30 C200.76,74.71 202.97,63.33 204.42,57.00 C205.88,50.67 207.54,43.36 208.12,40.75 C209.07,36.45 209.43,36.00 211.99,36.00 C215.08,36.00 220.00,31.18 220.00,28.17 C219.99,25.25 216.16,20.08 213.51,19.41 C210.42,18.64 205.28,20.61 203.96,23.07 C202.48,25.85 202.82,31.15 204.62,33.13 C206.14,34.81 205.89,35.40 200.90,42.21 C190.51,56.37 179.81,66.00 174.46,66.00 C173.57,66.00 171.48,64.63 169.81,62.96 C166.97,60.13 166.88,59.79 168.38,58.13 C170.60,55.68 170.41,52.29 168.00,51.00 C163.47,48.58 160.01,54.14 163.59,58.10 C164.96,59.61 164.99,60.23 163.84,62.59 C160.86,68.66 155.74,68.24 149.37,61.41 C144.87,56.58 138.62,45.42 137.53,40.26 C136.93,37.41 137.15,36.89 139.36,36.05 C142.51,34.86 144.00,32.15 144.00,27.64 C144.00,21.03 136.13,17.75 130.63,22.07 C126.15,25.60 127.36,34.04 132.64,36.05 C134.85,36.89 135.07,37.40 134.45,40.26 C132.39,49.79 121.40,65.11 115.58,66.57 C112.02,67.46 110.37,66.62 108.48,62.96 C107.00,60.10 107.00,59.66 108.43,58.08 C111.99,54.14 108.52,48.58 104.00,51.00 C101.65,52.26 101.35,56.22 103.48,57.98 C106.82,60.76 100.17,66.64 94.98,65.50 C90.69,64.55 80.33,54.60 72.40,43.79 C66.32,35.51 65.95,34.71 67.42,33.09 C69.02,31.32 69.51,26.49 68.38,23.54 C67.38,20.95 62.25,18.79 58.85,19.53 C55.77,20.21 52.01,24.95 52.00,28.17 C52.00,31.17 56.92,36.00 59.99,36.00 C62.75,36.00 62.85,36.20 65.42,47.25 C68.78,61.73 72.71,81.98 73.52,89.00 C73.87,92.03 74.45,95.18 74.81,96.00 ZM 121.58 167.15 C127.59,170.35 132.90,172.98 133.39,172.99 C133.90,172.99 134.05,168.36 133.75,162.39 C133.28,153.32 132.79,150.97 130.35,146.22 C126.36,138.44 125.01,138.43 126.61,146.19 C127.32,149.62 127.80,152.53 127.68,152.65 C127.26,153.07 106.48,132.68 104.25,129.66 C103.01,127.98 102.00,125.35 102.00,123.81 C102.00,120.16 100.45,120.23 98.53,123.95 C96.62,127.64 96.59,131.69 98.45,135.25 C99.24,136.76 99.49,138.00 99.02,138.00 C96.92,138.00 86.63,127.18 81.39,119.46 C78.23,114.81 75.21,111.00 74.68,111.00 C74.11,111.00 73.95,113.26 74.29,116.50 C74.60,119.53 74.47,122.00 73.99,122.00 C72.14,122.00 59.31,106.69 55.81,100.31 L 52.11 93.58 L 50.97 96.54 C50.35,98.17 49.53,101.21 49.17,103.31 L 48.50 107.12 L 44.83 102.31 C40.34,96.41 33.23,81.94 32.45,77.08 C31.07,68.58 29.97,69.71 30.49,79.10 C31.55,98.25 37.80,111.25 52.95,125.84 C58.19,130.89 58.34,131.15 55.50,130.54 C51.26,129.62 40.15,124.35 36.34,121.45 C32.16,118.26 31.62,118.36 33.49,121.98 C35.35,125.58 43.82,132.14 50.00,134.78 C52.47,135.83 59.45,138.17 65.50,139.96 C71.55,141.75 78.17,144.07 80.21,145.11 C82.25,146.15 84.23,147.00 84.62,147.00 C86.25,147.00 81.13,142.60 77.00,140.44 C73.46,138.59 72.99,138.08 74.80,138.05 C78.28,137.98 82.23,140.33 97.08,151.30 C104.55,156.82 115.58,163.95 121.58,167.15 ZM 127.16 220.99 C131.75,228.13 135.73,233.98 136.00,233.98 C136.79,233.99 152.50,209.25 152.50,208.00 C152.50,206.74 136.78,182.00 136.00,182.03 C135.73,182.04 131.75,187.89 127.16,195.03 L 118.82 208.01 ZM 85.99 193.07 C89.90,194.25 93.28,194.12 98.39,192.58 C107.82,189.74 114.27,182.11 115.57,172.25 C116.39,166.02 114.59,164.88 113.61,171.01 C112.91,175.40 107.61,182.12 102.93,184.54 C95.53,188.36 86.33,187.10 80.00,181.38 C72.15,174.29 70.94,163.33 77.00,154.34 C78.70,151.82 79.84,149.51 79.53,149.20 C78.53,148.20 71.81,155.39 69.90,159.50 C67.44,164.80 67.44,174.18 69.91,179.60 C72.73,185.81 78.77,190.87 85.99,193.07 ZM 172.67 192.43 C188.35,197.43 203.92,186.14 203.98,169.72 C204.00,162.91 202.45,158.72 198.02,153.68 C193.44,148.46 191.25,148.88 195.04,154.25 C198.97,159.83 199.95,167.22 197.58,173.43 C194.57,181.31 186.11,187.02 177.50,186.97 C169.79,186.93 159.55,178.28 158.35,170.80 C157.69,166.65 156.00,165.59 156.00,169.32 C156.00,178.92 163.68,189.57 172.67,192.43 ZM 135.79 198.25 C135.94,203.61 135.94,212.39 135.79,217.75 L 135.50 227.50 L 129.26 218.00 C125.82,212.77 123.19,208.03 123.40,207.45 C123.61,206.87 126.42,202.37 129.64,197.45 L 135.50 188.50 ZM 185.12 160.22 C186.45,162.71 190.70,162.53 191.52,159.95 C191.87,158.83 191.62,157.25 190.96,156.45 C188.16,153.08 183.06,156.38 185.12,160.22 ZM 81.34 160.43 C81.78,161.59 82.87,162.03 84.74,161.82 C87.07,161.55 87.50,161.03 87.50,158.50 C87.50,156.00 87.10,155.50 85.11,155.50 C82.31,155.50 80.40,158.00 81.34,160.43 Z" fill="rgb(3,2,2)"/>
<path d="M 197.94 112.79 C197.53,111.03 196.05,112.66 192.76,117.61 C191.90,118.91 190.75,120.44 189.46,122.07 C191.71,119.08 193.58,116.24 194.59,114.16 C195.99,111.22 196.98,108.65 196.78,108.45 C195.98,107.64 183.35,111.21 176.63,114.14 C172.07,116.13 167.63,118.50 162.83,121.57 C164.20,120.67 165.61,119.77 167.09,118.85 L 177.32 112.50 L 172.19 112.20 C169.37,112.03 166.15,112.39 165.03,112.98 C161.68,114.78 162.74,112.59 166.25,110.47 L 169.50 108.50 L 166.82 108.19 C165.34,108.02 162.71,108.62 160.97,109.51 C157.07,111.53 156.33,110.95 158.54,107.59 C159.91,105.48 159.97,105.00 158.81,105.00 C156.62,105.00 148.84,110.32 145.56,114.05 L 142.63 117.40 L 141.48 112.45 C139.94,105.85 137.36,100.00 135.99,100.00 C134.53,100.00 130.90,108.31 130.25,113.16 C129.97,115.27 129.54,117.00 129.30,117.00 C129.07,117.00 127.67,115.57 126.21,113.83 C123.28,110.35 115.41,105.00 113.22,105.00 C112.20,105.00 112.43,105.98 114.10,108.75 C116.11,112.07 116.15,112.30 114.41,110.80 C113.33,109.86 110.43,108.82 107.97,108.48 L 103.50 107.87 L 110.08 113.71 L 104.34 112.81 C94.40,111.25 93.74,112.08 101.50,116.41 C111.60,122.06 118.65,126.97 128.03,134.90 C108.82,118.66 94.15,111.36 74.43,108.23 L 63.96 106.57 L 67.23 104.85 C73.09,101.78 83.03,100.55 91.74,101.83 C96.01,102.45 100.62,103.23 102.00,103.55 C104.25,104.08 104.31,104.02 102.61,102.94 C99.74,101.12 91.01,99.03 86.25,99.01 C83.91,99.01 82.00,98.57 82.00,98.04 C82.00,96.29 90.38,94.77 97.29,95.26 C101.02,95.52 103.87,95.54 103.63,95.30 C103.38,95.05 100.58,93.79 97.39,92.50 C91.75,90.20 91.67,90.12 94.49,89.41 C97.26,88.72 106.24,89.85 110.50,91.43 C112.40,92.13 112.40,92.08 110.39,90.33 C109.23,89.33 106.98,87.49 105.39,86.26 L 102.50 84.02 L 105.50 84.62 C107.15,84.94 110.19,86.06 112.25,87.09 C116.48,89.21 116.96,88.49 113.93,84.63 C109.06,78.44 120.90,84.67 126.25,91.12 L 129.69 95.26 L 130.30 90.82 C130.99,85.79 134.48,77.00 135.79,77.00 C137.11,77.00 140.97,85.94 141.79,90.91 L 142.52 95.31 L 145.39 91.55 C148.32,87.71 156.31,82.00 158.75,82.00 C159.65,82.00 159.25,83.12 157.55,85.34 C154.14,89.82 154.33,90.33 158.52,87.86 C161.68,85.99 169.00,83.69 169.00,84.56 C169.00,84.75 166.94,86.32 164.43,88.05 C161.92,89.78 160.02,91.35 160.22,91.55 C160.42,91.75 162.36,91.27 164.54,90.50 C169.13,88.86 176.83,88.60 179.00,90.00 C180.33,90.86 180.33,90.97 179.00,91.00 C178.18,91.01 175.25,92.08 172.50,93.37 L 167.50 95.72 L 174.50 95.25 C181.60,94.77 190.00,96.28 190.00,98.04 C190.00,98.57 188.02,99.00 185.61,99.00 C183.19,99.00 178.19,99.93 174.51,101.07 C167.49,103.24 165.99,104.88 172.65,103.11 C183.78,100.15 196.97,100.92 204.96,104.99 L 208.41 106.76 L 198.16 108.17 ZM 212.76 242.25 C206.13,234.33 195.25,223.42 194.61,224.06 C194.36,224.31 195.25,228.27 196.58,232.87 C197.91,237.47 199.00,242.82 199.00,244.78 C199.00,248.24 198.88,248.14 194.18,240.42 C187.32,229.15 175.83,212.66 164.47,197.75 C162.48,195.14 161.07,193.00 161.33,193.00 C161.60,193.00 164.20,194.24 167.11,195.75 C171.68,198.12 173.58,198.50 180.95,198.49 C183.60,198.49 185.87,198.36 187.89,198.04 C186.02,198.45 183.99,198.73 181.73,198.90 L 173.96 199.50 L 181.73 211.33 C189.97,223.87 191.73,224.46 188.57,213.59 C187.71,210.62 187.00,207.60 187.00,206.87 C187.00,206.14 190.82,209.35 195.50,214.00 C200.19,218.67 204.00,221.76 204.00,220.91 C204.00,220.06 202.24,216.47 200.10,212.93 C197.95,209.39 196.37,206.32 196.58,206.10 C197.18,205.47 204.44,210.77 208.40,214.73 C210.38,216.71 212.00,217.85 212.00,217.25 C212.00,215.49 208.14,207.00 205.92,203.89 C203.22,200.09 204.40,200.25 210.91,204.53 C213.86,206.47 216.52,207.82 216.81,207.52 C217.11,207.22 216.58,205.35 215.64,203.36 C214.69,201.38 214.12,199.55 214.36,199.30 C214.61,199.05 216.18,199.56 217.86,200.43 C219.53,201.29 221.22,202.00 221.61,202.00 C222.98,202.00 218.61,197.93 214.33,195.24 C211.95,193.73 210.00,192.12 210.00,191.65 C210.00,191.18 212.02,190.96 214.50,191.16 C219.77,191.58 220.19,190.69 215.95,188.11 C212.29,185.89 213.63,185.00 220.64,185.00 C225.98,185.00 225.65,183.64 219.65,180.96 L 215.55 179.12 L 218.34 178.06 C219.88,177.48 221.58,177.00 222.12,177.00 C224.47,177.00 221.63,175.02 218.42,174.42 C214.76,173.73 214.25,171.76 217.58,171.15 C221.05,170.53 221.39,169.13 218.40,167.85 C214.27,166.07 214.27,166.06 217.01,163.95 L 219.50 162.04 L 215.25 162.02 C210.37,162.00 209.84,160.95 213.67,158.92 L 216.35 157.50 L 211.92 156.96 L 207.50 156.41 L 210.33 155.01 C213.10,153.64 213.11,153.59 210.98,152.80 C209.55,152.27 209.00,151.45 209.38,150.44 C209.69,149.65 209.46,148.47 208.89,147.71 C210.09,147.98 212.36,146.15 214.23,143.15 L 216.50 139.50 L 217.56 146.50 L 219.15 142.00 L 220.74 137.50 L 221.49 141.29 C221.90,143.37 221.96,146.46 221.62,148.15 C221.08,150.87 221.24,151.17 223.00,150.71 C225.39,150.09 225.51,150.82 223.51,153.68 C222.19,155.56 222.20,155.86 223.60,156.40 C224.46,156.73 226.14,157.04 227.33,157.08 C229.13,157.15 228.96,157.40 226.33,158.55 C221.29,160.76 221.33,162.00 226.44,162.00 C228.95,162.00 231.00,162.34 230.99,162.75 C230.99,163.16 229.53,164.37 227.74,165.43 L 227.65 165.48 C226.30,166.28 225.49,166.76 225.55,167.11 C225.62,167.63 227.57,167.88 232.38,168.52 L 237.26 169.16 L 234.13 171.07 C232.41,172.11 231.00,173.31 231.01,173.74 C231.02,174.16 232.93,175.32 235.26,176.33 L 239.50 178.15 L 235.08 179.83 C230.42,181.59 228.49,184.00 231.74,184.00 C232.79,184.00 235.86,184.76 238.57,185.69 L 243.50 187.39 L 237.72 188.56 C234.53,189.21 231.72,189.95 231.46,190.21 C231.20,190.46 232.74,191.25 234.88,191.96 C237.02,192.67 240.00,194.22 241.49,195.41 L 244.21 197.58 L 237.62 197.73 C234.00,197.81 230.24,198.33 229.27,198.87 C227.61,199.80 227.63,199.91 229.50,200.60 C232.12,201.55 237.00,204.95 237.00,205.82 C237.00,206.19 233.74,206.39 229.75,206.26 C229.20,206.24 228.68,206.22 228.20,206.20 C225.55,206.10 224.07,206.04 223.93,206.44 C223.76,206.94 225.69,208.16 230.03,210.90 C230.65,211.30 231.33,211.72 232.05,212.18 C235.24,214.21 238.34,216.77 238.94,217.88 C239.96,219.80 239.74,219.78 234.48,217.45 C231.43,216.10 228.80,215.00 228.63,215.00 C228.45,215.00 229.59,217.54 231.15,220.64 C235.29,228.84 234.77,229.56 228.25,224.63 C225.09,222.24 220.94,219.48 219.04,218.50 L 215.58 216.73 L 217.29 219.11 C219.84,222.67 225.03,232.83 226.65,237.45 L 228.08 241.50 L 222.29 235.89 C217.36,231.11 211.80,226.86 206.16,223.56 C205.43,223.13 205.97,224.51 207.37,226.64 C212.97,235.13 219.99,249.00 218.69,249.00 C218.53,249.00 215.86,245.96 212.76,242.25 ZM 53.00 248.81 C53.00,247.24 57.87,237.58 62.13,230.70 C64.79,226.42 66.41,223.23 65.73,223.62 C60.27,226.80 54.61,231.14 49.71,235.89 L 43.92 241.50 L 45.35 237.43 C47.15,232.32 51.63,223.39 54.26,219.65 L 56.27 216.81 L 52.89 218.56 C51.03,219.52 47.13,222.10 44.23,224.29 C41.32,226.49 38.69,228.03 38.38,227.71 C38.07,227.40 39.13,224.42 40.73,221.07 C42.33,217.73 43.51,215.00 43.35,215.00 C43.19,215.00 40.57,216.10 37.52,217.45 C32.69,219.59 32.11,219.67 32.94,218.10 C34.17,215.81 39.25,211.94 45.00,208.93 C49.01,206.82 49.24,206.52 47.11,206.19 C45.80,205.99 42.54,205.98 39.86,206.16 C37.19,206.35 35.00,206.23 35.00,205.90 C35.00,204.92 38.31,202.47 41.48,201.11 C44.11,199.98 44.25,199.72 42.70,198.85 C41.74,198.31 38.08,197.79 34.56,197.69 C31.05,197.60 28.42,197.13 28.71,196.66 C29.00,196.19 31.89,194.55 35.14,193.01 C41.42,190.04 41.26,189.61 33.43,188.44 L 28.61 187.71 L 33.06 185.91 C35.50,184.92 38.55,184.09 39.83,184.06 C43.46,183.97 41.88,181.70 36.92,179.86 L 32.50 178.22 L 36.50 176.39 C38.70,175.38 40.72,174.39 41.00,174.19 C41.28,173.99 40.19,172.77 38.58,171.49 L 35.66 169.15 L 39.08 168.60 C40.96,168.29 43.62,167.89 45.00,167.72 C47.48,167.40 47.48,167.38 44.26,165.45 C42.47,164.38 41.01,163.19 41.01,162.80 C41.00,162.42 43.14,161.97 45.75,161.80 L 50.50 161.50 L 46.58 159.39 L 42.67 157.29 L 46.41 156.58 C50.10,155.89 50.13,155.85 48.58,153.48 C46.54,150.37 46.59,150.08 49.00,150.71 C50.76,151.17 50.92,150.87 50.38,148.15 C50.04,146.46 50.10,143.37 50.51,141.29 L 51.26 137.50 L 52.87 142.00 C54.34,146.13 54.50,146.27 54.80,143.75 C55.24,140.14 56.03,140.30 58.76,144.51 C60.13,146.63 61.83,148.00 63.07,148.00 C64.20,148.00 64.84,147.55 64.50,147.00 C63.98,146.16 64.21,145.88 64.79,146.03 C64.22,145.89 63.99,146.18 64.50,147.00 C64.84,147.55 64.42,148.00 63.56,148.00 C61.72,148.00 61.55,149.15 63.14,150.74 C64.00,151.60 63.59,152.06 61.50,152.59 L 58.71 153.29 L 64.50 156.50 L 56.78 157.13 L 59.06 159.57 L 61.35 162.00 L 56.92 162.03 L 52.50 162.07 L 54.89 164.06 C56.21,165.15 57.11,166.17 56.89,166.32 C56.68,166.47 55.15,167.19 53.50,167.91 L 50.50 169.23 L 53.75 170.80 C55.54,171.66 57.00,172.64 57.00,172.97 C57.00,173.31 54.86,174.20 52.25,174.94 C48.85,175.92 48.07,176.44 49.50,176.77 C50.60,177.03 52.61,177.66 53.97,178.18 C56.41,179.11 56.38,179.15 52.35,180.96 C46.35,183.64 46.02,185.00 51.36,185.00 C58.54,185.00 59.70,185.88 55.80,188.38 L 52.50 190.50 L 57.25 190.80 C62.44,191.14 63.26,192.11 59.72,193.72 C56.71,195.09 51.00,199.93 51.00,201.11 C51.00,201.63 52.39,201.33 54.09,200.45 C55.79,199.57 57.39,199.05 57.64,199.30 C57.88,199.55 57.31,201.38 56.36,203.36 C55.42,205.35 54.89,207.22 55.19,207.52 C55.48,207.82 58.14,206.47 61.09,204.53 C64.04,202.59 66.79,201.00 67.20,201.00 C67.61,201.00 66.86,202.60 65.53,204.55 C64.21,206.50 62.59,209.76 61.93,211.80 C61.28,213.83 60.29,216.06 59.75,216.75 C57.56,219.51 60.81,217.79 64.00,214.50 C67.70,210.68 74.80,205.47 75.43,206.10 C75.65,206.32 74.08,209.43 71.95,213.00 C65.91,223.14 67.21,223.57 76.17,214.38 C80.67,209.78 84.52,206.18 84.73,206.39 C84.94,206.61 84.41,209.48 83.56,212.78 C82.70,216.09 82.00,220.03 82.00,221.55 C82.00,223.82 82.98,222.74 87.56,215.40 C90.62,210.51 94.42,204.87 96.01,202.88 L 98.89 199.25 L 91.20 198.79 C89.77,198.71 88.41,198.56 87.10,198.35 C88.38,198.44 89.85,198.48 91.57,198.48 C98.40,198.47 100.44,198.05 104.91,195.74 C107.81,194.23 110.39,193.00 110.65,193.00 C110.91,193.00 109.14,195.59 106.71,198.75 C97.15,211.24 84.08,230.29 75.17,244.73 L 72.84 248.50 L 73.40 242.28 C73.71,238.85 74.87,233.49 75.97,230.35 C77.07,227.21 77.73,224.39 77.42,224.09 C76.84,223.51 62.90,237.52 56.71,244.93 C54.67,247.37 53.00,249.11 53.00,248.81 ZM 77.00 140.44 C78.49,141.22 80.11,142.29 81.49,143.34 C80.07,142.27 78.46,141.26 77.20,140.74 C75.16,139.91 72.38,138.76 71.00,138.18 L 68.50 137.14 L 71.50 137.09 C73.18,137.06 74.99,137.45 77.26,138.41 C76.35,138.13 75.56,138.03 74.80,138.05 C72.99,138.08 73.46,138.59 77.00,140.44 ZM 194.17 139.02 C197.04,137.63 199.31,137.03 201.22,137.08 C204.45,137.16 204.43,137.18 200.00,138.71 C197.44,139.59 194.52,141.15 192.33,142.66 C194.04,141.36 196.06,140.07 197.50,139.49 C199.22,138.80 199.26,138.63 197.83,138.29 C196.99,138.09 195.80,138.31 194.17,139.02 ZM 241.97 78.43 C241.76,73.38 240.57,73.17 239.56,78.53 C238.92,81.96 237.44,85.87 235.09,90.37 C237.71,85.34 239.16,81.08 239.68,77.06 C240.76,68.75 241.94,69.16 241.97,77.86 C241.97,78.05 241.97,78.24 241.97,78.43 ZM 63.13 165.21 C63.59,159.61 64.83,155.80 66.92,153.59 C67.24,153.25 67.52,152.93 67.76,152.65 C67.36,153.57 66.79,154.75 66.03,156.28 C64.58,159.23 63.62,162.23 63.13,165.21 ZM 41.36 96.99 C37.98,91.32 34.44,84.02 33.02,79.50 C31.63,75.10 30.70,73.63 30.36,75.01 C30.35,69.61 31.31,70.04 32.45,77.08 C33.05,80.80 37.36,90.16 41.36,96.99 ZM 204.38 152.23 L 205.53 154.05 C209.96,161.07 210.93,169.73 208.72,177.62 C209.24,175.21 209.46,172.56 209.43,169.50 C209.37,162.56 208.96,160.75 206.31,155.81 ZM 78.07 195.50 C74.16,193.49 70.94,190.58 68.33,186.69 C70.81,190.06 74.07,193.06 78.07,195.50 ZM 238.33 99.06 C235.35,107.01 230.52,114.43 223.68,121.65 C230.32,114.64 235.26,106.98 238.33,99.06 ZM 33.56 96.95 C36.98,107.40 43.12,116.37 52.95,125.84 C43.00,116.26 36.88,107.36 33.56,96.95 ZM 121.58 167.15 C115.58,163.95 104.55,156.82 97.08,151.30 C94.59,149.46 92.40,147.86 90.47,146.47 C92.42,147.85 94.56,149.41 96.93,151.16 C104.48,156.76 115.58,163.95 121.58,167.15 ZM 174.85 125.74 C173.97,123.36 172.92,121.68 172.13,121.18 C172.66,121.45 173.32,122.23 174.01,123.51 C174.36,124.17 174.64,124.92 174.85,125.74 ZM 177.99 134.87 C176.54,136.27 175.39,137.25 174.76,137.56 L 177.08 135.64 C177.38,135.40 177.68,135.14 177.99,134.87 ZM 198.63 122.00 C197.93,121.97 197.64,120.93 197.76,118.87 C197.82,120.97 198.10,121.94 198.63,122.00 ZM 208.17 147.01 C207.43,146.50 206.78,146.84 205.31,148.20 L 203.25 150.12 L 203.25 150.12 L 205.52 147.99 C206.90,146.68 207.93,146.29 208.16,146.98 C208.16,146.99 208.17,147.00 208.17,147.01 ZM 174.26 136.44 C174.37,135.68 174.62,134.65 174.97,133.58 C174.98,133.56 174.99,133.53 175.00,133.50 C174.88,134.17 174.72,134.83 174.53,135.48 ZM 141.39 137.73 C140.27,138.67 139.12,139.64 137.94,140.64 C137.78,140.77 137.63,140.88 137.46,140.96 L 138.99 139.70 C139.81,139.02 140.62,138.37 141.39,137.73 ZM 209.11 111.48 C214.13,105.13 219.00,97.87 219.00,95.79 C219.00,97.88 214.14,105.13 209.11,111.48 ZM 84.62 147.00 C84.23,147.00 82.25,146.15 80.21,145.11 C82.24,146.14 84.22,146.99 84.63,147.00 ZM 67.96 148.55 C67.80,148.34 67.61,148.13 67.41,147.90 C67.42,147.91 67.43,147.92 67.44,147.93 C67.64,148.15 67.82,148.35 67.96,148.55 Z" fill="rgb(179,179,179)"/>
<path d="M 121.58 167.15 C115.58,163.95 104.48,156.76 96.93,151.16 C94.56,149.41 92.42,147.85 90.47,146.47 L 90.47 146.47 C83.43,141.41 79.83,139.20 77.26,138.41 C74.99,137.45 73.18,137.06 71.50,137.09 L 68.50 137.14 L 71.00 138.18 C72.38,138.76 75.16,139.91 77.20,140.74 C78.46,141.26 80.07,142.27 81.49,143.34 C83.94,145.19 85.64,146.99 84.63,147.00 C84.22,146.99 82.24,146.14 80.21,145.11 C78.17,144.07 71.55,141.75 65.50,139.96 C59.45,138.17 52.47,135.83 50.00,134.78 C43.82,132.14 35.35,125.58 33.49,121.98 C31.62,118.36 32.16,118.26 36.34,121.45 C40.15,124.35 51.26,129.62 55.50,130.54 C58.34,131.15 58.19,130.89 52.95,125.84 C43.12,116.37 36.98,107.40 33.56,96.95 C31.83,91.51 30.85,85.67 30.49,79.10 C30.40,77.49 30.36,76.12 30.36,75.01 C30.70,73.63 31.63,75.10 33.02,79.50 C34.44,84.02 37.98,91.32 41.36,96.99 C42.59,99.08 43.78,100.93 44.83,102.31 L 48.50 107.12 L 49.17 103.31 C49.53,101.21 50.35,98.17 50.97,96.54 L 52.11 93.58 L 55.81 100.31 C59.31,106.69 72.14,122.00 73.99,122.00 C74.47,122.00 74.60,119.53 74.29,116.50 C73.95,113.26 74.11,111.00 74.68,111.00 C75.21,111.00 78.23,114.81 81.39,119.46 C86.63,127.18 96.92,138.00 99.02,138.00 C99.49,138.00 99.24,136.76 98.45,135.25 C96.59,131.69 96.62,127.64 98.53,123.95 C100.45,120.23 102.00,120.16 102.00,123.81 C102.00,125.35 103.01,127.98 104.25,129.66 C106.48,132.68 127.26,153.07 127.68,152.65 C127.80,152.53 127.32,149.62 126.61,146.19 C125.01,138.43 126.36,138.44 130.35,146.22 C132.79,150.97 133.28,153.32 133.75,162.39 C134.05,168.36 133.90,172.99 133.39,172.99 C132.90,172.98 127.59,170.35 121.58,167.15 ZM 138.67 165.21 C139.23,154.00 140.44,148.85 143.70,143.68 C146.53,139.20 147.88,140.04 146.09,145.17 C145.49,146.89 145.00,149.51 145.00,150.98 C145.00,153.38 146.19,152.47 156.25,142.34 C167.27,131.25 171.00,126.30 171.00,122.77 C171.00,121.34 171.46,120.83 172.13,121.18 C172.92,121.68 173.97,123.36 174.85,125.74 C175.44,128.00 175.50,130.78 175.00,133.50 C174.99,133.53 174.98,133.56 174.97,133.58 C174.62,134.65 174.37,135.68 174.26,136.44 L 173.67 138.46 L 174.76 137.56 C175.39,137.25 176.54,136.27 177.99,134.87 C181.49,131.77 185.94,126.74 189.46,122.07 C190.75,120.44 191.90,118.91 192.76,117.61 C196.05,112.66 197.53,111.03 197.94,112.79 L 197.83 115.09 C197.76,116.62 197.73,117.87 197.76,118.87 C197.64,120.93 197.93,121.97 198.63,122.00 C198.65,122.00 198.67,122.00 198.69,122.00 C200.12,122.00 204.68,117.09 209.12,111.47 C214.14,105.13 219.00,97.88 219.00,95.79 L 219.00 95.78 C219.00,94.80 219.41,94.00 219.90,94.00 C221.10,94.00 223.00,99.58 223.00,103.09 C223.00,108.06 224.67,107.12 229.83,99.24 C231.94,96.00 233.68,93.08 235.09,90.37 L 235.09 90.37 C237.44,85.87 238.92,81.96 239.56,78.53 C240.57,73.17 241.76,73.38 241.97,78.43 C241.94,85.78 240.75,92.60 238.33,99.06 C235.26,106.98 230.32,114.64 223.68,121.65 C219.31,126.28 215.96,130.29 216.24,130.57 C217.22,131.55 230.33,125.95 235.14,122.49 C240.51,118.63 240.92,118.77 238.04,123.43 C233.95,130.05 224.95,134.92 207.23,140.08 C201.35,141.79 194.85,144.06 192.77,145.12 C190.70,146.17 189.00,146.60 189.00,146.07 C189.00,145.50 190.48,144.07 192.33,142.66 C194.52,141.15 197.44,139.59 200.00,138.71 C204.43,137.18 204.45,137.16 201.22,137.08 C199.31,137.03 197.04,137.63 194.17,139.02 C190.85,140.45 185.72,143.86 178.14,149.60 L 177.89 149.79 C177.54,150.06 177.19,150.32 176.84,150.59 C176.54,150.81 176.23,151.04 175.93,151.27 C172.33,153.95 168.84,156.42 165.39,158.71 C164.78,159.11 164.18,159.51 163.57,159.90 C162.90,160.33 162.24,160.76 161.57,161.18 C156.24,164.55 150.94,167.54 145.36,170.33 L 138.23 173.91 ZM 141.39 137.73 C140.62,138.37 139.81,139.02 138.99,139.70 L 137.46 140.96 C136.20,141.53 134.40,140.30 128.07,134.94 L 128.03 134.90 L 128.02 134.90 C118.65,126.97 111.60,122.06 101.50,116.41 C93.74,112.08 94.40,111.25 104.34,112.81 L 110.08 113.71 L 103.50 107.87 L 107.97 108.48 C110.43,108.82 113.33,109.86 114.41,110.80 C116.15,112.30 116.11,112.07 114.10,108.75 C112.43,105.98 112.20,105.00 113.22,105.00 C115.41,105.00 123.28,110.35 126.21,113.83 C127.67,115.57 129.07,117.00 129.30,117.00 C129.54,117.00 129.97,115.27 130.25,113.16 C130.90,108.31 134.53,100.00 135.99,100.00 C137.36,100.00 139.94,105.85 141.48,112.45 L 142.63 117.40 L 145.56 114.05 C148.84,110.32 156.62,105.00 158.81,105.00 C159.97,105.00 159.91,105.48 158.54,107.59 C156.33,110.95 157.07,111.53 160.97,109.51 C162.71,108.62 165.34,108.02 166.82,108.19 L 169.50 108.50 L 166.25 110.47 C162.74,112.59 161.68,114.78 165.03,112.98 C166.15,112.39 169.37,112.03 172.19,112.20 L 177.32 112.50 L 167.09 118.85 C165.61,119.77 164.20,120.67 162.83,121.57 C156.62,125.55 149.81,130.70 141.39,137.73 ZM 63.13 165.21 C61.86,172.89 63.73,180.44 68.33,186.69 C70.94,190.58 74.16,193.49 78.07,195.50 C78.70,195.88 79.34,196.25 80.00,196.61 C81.86,197.60 83.90,198.13 87.10,198.35 C88.41,198.56 89.77,198.71 91.20,198.79 L 98.89 199.25 L 96.01 202.88 C94.42,204.87 90.62,210.51 87.56,215.40 C82.98,222.74 82.00,223.82 82.00,221.55 C82.00,220.03 82.70,216.09 83.56,212.78 C84.41,209.48 84.94,206.61 84.73,206.39 C84.52,206.18 80.67,209.78 76.17,214.38 C67.21,223.57 65.91,223.14 71.95,213.00 C74.08,209.43 75.65,206.32 75.43,206.10 C74.80,205.47 67.70,210.68 64.00,214.50 C60.81,217.79 57.56,219.51 59.75,216.75 C60.29,216.06 61.28,213.83 61.93,211.80 C62.59,209.76 64.21,206.50 65.53,204.55 C66.86,202.60 67.61,201.00 67.20,201.00 C66.79,201.00 64.04,202.59 61.09,204.53 C58.14,206.47 55.48,207.82 55.19,207.52 C54.89,207.22 55.42,205.35 56.36,203.36 C57.31,201.38 57.88,199.55 57.64,199.30 C57.39,199.05 55.79,199.57 54.09,200.45 C52.39,201.33 51.00,201.63 51.00,201.11 C51.00,199.93 56.71,195.09 59.72,193.72 C63.26,192.11 62.44,191.14 57.25,190.80 L 52.50 190.50 L 55.80 188.38 C59.70,185.88 58.54,185.00 51.36,185.00 C46.02,185.00 46.35,183.64 52.35,180.96 C56.38,179.15 56.41,179.11 53.97,178.18 C52.61,177.66 50.60,177.03 49.50,176.77 C48.07,176.44 48.85,175.92 52.25,174.94 C54.86,174.20 57.00,173.31 57.00,172.97 C57.00,172.64 55.54,171.66 53.75,170.80 L 50.50 169.23 L 53.50 167.91 C55.15,167.19 56.68,166.47 56.89,166.32 C57.11,166.17 56.21,165.15 54.89,164.06 L 52.50 162.07 L 56.92 162.03 L 61.35 162.00 L 59.06 159.57 L 56.78 157.13 L 64.50 156.50 L 58.71 153.29 L 61.50 152.59 C63.59,152.06 64.00,151.60 63.14,150.74 C61.55,149.15 61.72,148.00 63.56,148.00 C64.42,148.00 64.84,147.55 64.50,147.00 C63.99,146.18 64.22,145.89 64.79,146.03 C65.42,146.19 66.47,146.87 67.41,147.90 L 67.41 147.90 C67.61,148.13 67.80,148.34 67.96,148.55 C68.75,149.55 68.79,150.31 67.76,152.65 C67.52,152.93 67.24,153.25 66.92,153.59 C64.83,155.80 63.59,159.61 63.13,165.21 ZM 204.38 152.23 L 203.25 150.12 L 205.31 148.20 C206.78,146.84 207.43,146.50 208.17,147.01 C208.31,147.41 208.56,147.64 208.89,147.71 C209.46,148.47 209.69,149.65 209.38,150.44 C209.00,151.45 209.55,152.27 210.98,152.80 C213.11,153.59 213.10,153.64 210.33,155.01 L 207.50 156.41 L 211.92 156.96 L 216.35 157.50 L 213.67 158.92 C209.84,160.95 210.37,162.00 215.25,162.02 L 219.50 162.04 L 217.01 163.95 C214.27,166.06 214.27,166.07 218.40,167.85 C221.39,169.13 221.05,170.53 217.58,171.15 C214.25,171.76 214.76,173.73 218.42,174.42 C221.63,175.02 224.47,177.00 222.12,177.00 C221.58,177.00 219.88,177.48 218.34,178.06 L 215.55 179.12 L 219.65 180.96 C225.65,183.64 225.98,185.00 220.64,185.00 C213.63,185.00 212.29,185.89 215.95,188.11 C220.19,190.69 219.77,191.58 214.50,191.16 C212.02,190.96 210.00,191.18 210.00,191.65 C210.00,192.12 211.95,193.73 214.33,195.24 C218.61,197.93 222.98,202.00 221.61,202.00 C221.22,202.00 219.53,201.29 217.86,200.43 C216.18,199.56 214.61,199.05 214.36,199.30 C214.12,199.55 214.69,201.38 215.64,203.36 C216.58,205.35 217.11,207.22 216.81,207.52 C216.52,207.82 213.86,206.47 210.91,204.53 C204.40,200.25 203.22,200.09 205.92,203.89 C208.14,207.00 212.00,215.49 212.00,217.25 C212.00,217.85 210.38,216.71 208.40,214.73 C204.44,210.77 197.18,205.47 196.58,206.10 C196.37,206.32 197.95,209.39 200.10,212.93 C202.24,216.47 204.00,220.06 204.00,220.91 C204.00,221.76 200.19,218.67 195.50,214.00 C190.82,209.35 187.00,206.14 187.00,206.87 C187.00,207.60 187.71,210.62 188.57,213.59 C191.73,224.46 189.97,223.87 181.73,211.33 L 173.96 199.50 L 181.73 198.90 C183.99,198.73 186.02,198.45 187.89,198.04 C193.32,197.17 196.97,194.96 201.41,190.39 C205.40,186.28 207.67,182.45 208.72,177.62 C210.93,169.73 209.96,161.07 205.53,154.05 ZM 185.12 160.22 C183.06,156.38 188.16,153.08 190.96,156.45 C191.62,157.25 191.87,158.83 191.52,159.95 C190.70,162.53 186.45,162.71 185.12,160.22 ZM 81.34 160.43 C80.40,158.00 82.31,155.50 85.11,155.50 C87.10,155.50 87.50,156.00 87.50,158.50 C87.50,161.03 87.07,161.55 84.74,161.82 C82.87,162.03 81.78,161.59 81.34,160.43 Z" fill="rgb(249,249,249)"/>
<path d="M 127.16 220.99 L 118.82 208.01 L 127.16 195.03 C131.75,187.89 135.73,182.04 136.00,182.03 C136.78,182.00 152.50,206.74 152.50,208.00 C152.50,209.25 136.79,233.99 136.00,233.98 C135.73,233.98 131.75,228.13 127.16,220.99 ZM 135.79 198.25 L 135.50 188.50 L 129.64 197.45 C126.42,202.37 123.61,206.87 123.40,207.45 C123.19,208.03 125.82,212.77 129.26,218.00 L 135.50 227.50 L 135.79 217.75 C135.94,212.39 135.94,203.61 135.79,198.25 ZM 85.99 193.07 C78.77,190.87 72.73,185.81 69.91,179.60 C67.44,174.18 67.44,164.80 69.90,159.50 C71.81,155.39 78.53,148.20 79.53,149.20 C79.84,149.51 78.70,151.82 77.00,154.34 C70.94,163.33 72.15,174.29 80.00,181.38 C86.33,187.10 95.53,188.36 102.93,184.54 C107.61,182.12 112.91,175.40 113.61,171.01 C114.59,164.88 116.39,166.02 115.57,172.25 C114.27,182.11 107.82,189.74 98.39,192.58 C93.28,194.12 89.90,194.25 85.99,193.07 ZM 172.67 192.43 C163.68,189.57 156.00,178.92 156.00,169.32 C156.00,165.59 157.69,166.65 158.35,170.80 C159.55,178.28 169.79,186.93 177.50,186.97 C186.11,187.02 194.57,181.31 197.58,173.43 C199.95,167.22 198.97,159.83 195.04,154.25 C191.25,148.88 193.44,148.46 198.02,153.68 C202.45,158.72 204.00,162.91 203.98,169.72 C203.92,186.14 188.35,197.43 172.67,192.43 ZM 74.81 96.00 C74.45,95.18 73.87,92.03 73.52,89.00 C72.71,81.98 68.78,61.73 65.42,47.25 C62.85,36.20 62.75,36.00 59.99,36.00 C56.92,36.00 52.00,31.17 52.00,28.17 C52.01,24.95 55.77,20.21 58.85,19.53 C62.25,18.79 67.38,20.95 68.38,23.54 C69.51,26.49 69.02,31.32 67.42,33.09 C65.95,34.71 66.32,35.51 72.40,43.79 C80.33,54.60 90.69,64.55 94.98,65.50 C100.17,66.64 106.82,60.76 103.48,57.98 C101.35,56.22 101.65,52.26 104.00,51.00 C108.52,48.58 111.99,54.14 108.43,58.08 C107.00,59.66 107.00,60.10 108.48,62.96 C110.37,66.62 112.02,67.46 115.58,66.57 C121.40,65.11 132.39,49.79 134.45,40.26 C135.07,37.40 134.85,36.89 132.64,36.05 C127.36,34.04 126.15,25.60 130.63,22.07 C136.13,17.75 144.00,21.03 144.00,27.64 C144.00,32.15 142.51,34.86 139.36,36.05 C137.15,36.89 136.93,37.41 137.53,40.26 C138.62,45.42 144.87,56.58 149.37,61.41 C155.74,68.24 160.86,68.66 163.84,62.59 C164.99,60.23 164.96,59.61 163.59,58.10 C160.01,54.14 163.47,48.58 168.00,51.00 C170.41,52.29 170.60,55.68 168.38,58.13 C166.88,59.79 166.97,60.13 169.81,62.96 C171.48,64.63 173.57,66.00 174.46,66.00 C179.81,66.00 190.51,56.37 200.90,42.21 C205.89,35.40 206.14,34.81 204.62,33.13 C202.82,31.15 202.48,25.85 203.96,23.07 C205.28,20.61 210.42,18.64 213.51,19.41 C216.16,20.08 219.99,25.25 220.00,28.17 C220.00,31.18 215.08,36.00 211.99,36.00 C209.43,36.00 209.07,36.45 208.12,40.75 C207.54,43.36 205.88,50.67 204.42,57.00 C202.97,63.33 200.76,74.71 199.50,82.30 C198.25,89.90 196.95,96.38 196.61,96.72 C195.10,98.23 196.10,80.75 198.58,62.09 L 199.30 56.68 L 192.77 63.34 C185.01,71.26 177.67,75.02 168.57,75.75 C156.71,76.70 146.03,71.61 139.76,62.02 C137.97,59.28 136.25,57.03 135.93,57.02 C135.62,57.01 134.38,58.76 133.17,60.91 C130.57,65.54 125.55,70.14 119.72,73.23 C116.26,75.06 113.87,75.47 106.50,75.48 C94.64,75.51 88.46,72.75 79.22,63.33 L 72.68 56.66 L 73.36 61.58 C75.89,79.75 76.76,100.48 74.81,96.00 Z" fill="rgb(234,194,19)"/>
</g>
</svg>